<?xml version="1.0" encoding="UTF-8"?>
<!DOCTYPE svg PUBLIC "-//W3C//DTD SVG 1.1//EN" "http://www.w3.org/Graphics/SVG/1.1/DTD/svg11.dtd">
<!-- Creator: CorelDRAW -->
<svg xmlns="http://www.w3.org/2000/svg" xml:space="preserve" width="120mm" height="70mm" version="1.1" style="shape-rendering:geometricPrecision; text-rendering:geometricPrecision; image-rendering:optimizeQuality; fill-rule:evenodd; clip-rule:evenodd"
viewBox="0 0 24565.41 14329.82"
 xmlns:xlink="http://www.w3.org/1999/xlink"
 xmlns:xodm="http://www.corel.com/coreldraw/odm/2003">
 <defs>
  <style type="text/css">
   <![CDATA[
    .fil1 {fill:#3ECF34}
    .fil0 {fill:white}
   ]]>
  </style>
 </defs>
 <g id="图层_x0020_1">
  <metadata id="CorelCorpID_0Corel-Layer"/>
  <rect class="fil0" x="-0.02" width="24565.41" height="14329.82"/>
  <g id="_2621210213200">
   <path class="fil1" d="M7807.34 10017.14l-142.7 504.88c0,0 -977.09,-141.97 -993.28,43.91 -21.95,252.47 927.43,-126.23 883.52,422.55 -36.91,461.63 -142.62,504.88 -285.33,592.7 -142.7,87.8 -504.88,115.25 -845.17,93.29 -340.21,-21.95 -757.33,-65.86 -757.33,-65.86l93.29 -422.55c0,0 367.66,43.91 609.16,54.88 241.5,10.97 389.63,-10.97 406.09,-93.31 16.46,-82.31 -82.25,-115.25 -235.93,-104.28 -153.68,10.97 -493.91,0 -565.25,-104.28 -71.36,-104.2 -131.73,-197.51 -49.4,-471.94 82.31,-274.35 230.44,-400.6 417.06,-460.97 186.59,-60.37 576.22,-54.88 834.18,-43.91 257.9,10.99 631.11,54.88 631.11,54.88z"/>
   <polygon class="fil1" points="7884.17,10006.19 8652.49,10006.19 8734.83,10736.09 9157.37,10006.19 9964.12,10006.19 8784.14,11625.09 7939.05,11625.09 8224.4,11262.91 "/>
   <path class="fil1" d="M10062.87 10000.7l1317.12 0c74.97,0 235.93,0 323.75,93.29 87.82,93.31 87.82,208.5 76.83,378.66 -11.4,176.63 -71.34,279.9 -164.65,362.24 -93.23,82.25 -162.77,115.19 -274.35,126.16 -98.28,9.68 -192.1,5.49 -192.1,5.49l460.97 658.56 -812.15 0 -334.81 -559.76 -142.64 565.25 -696.96 0 439 -1629.87zm910.09 739.87c-7.8,5.63 -21.43,15.23 -31.83,15.37 -118.88,1.88 -395.32,5.06 -395.32,5.06l87.8 -334.81c0,0 296.32,-1.8 345.72,0 49.4,1.88 111.85,36.19 103.42,130.65 -7.66,84.71 -68.11,159.45 -109.79,183.73z"/>
   <polygon class="fil1" points="12203.16,10006.19 12900.14,10006.19 12455.63,11625.09 11769.56,11625.09 "/>
   <polygon class="fil1" points="12762.92,11630.6 13201.92,10006.19 13997.7,10006.19 14151.38,10944.59 14392.88,10006.19 15100.75,10006.19 14656.26,11630.6 13887.93,11630.6 13690.41,10785.42 13465.39,11630.6 "/>
   <path class="fil1" d="M16939.22 10050.1l-148.19 537.8c0,0 -301.81,-60.37 -565.25,-16.46 -263.44,43.89 -362.18,71.34 -428.03,274.35 -65.86,203.07 5.49,318.33 120.74,334.79 115.19,16.48 346.8,19 493.91,-5.49 164.59,-27.43 241.42,-49.4 241.42,-49.4l-131.65 471.94c0,0 -450.06,82.34 -779.3,82.34 -329.32,0 -554.28,-49.4 -642.1,-203.07 -87.8,-153.68 -98.79,-301.81 -27.43,-609.16 71.34,-307.29 149.48,-594.71 389.61,-762.76 219.55,-153.68 526.91,-159.18 768.32,-153.68 241.5,5.49 707.95,98.79 707.95,98.79z"/>
   <path class="fil1" d="M16741.66 11597.66l108.05 -404.49c-1.37,-3.19 356.32,38.06 583.45,47.8 226.76,9.74 444.63,6.71 433.52,-104.28 -9.17,-91.51 -69.48,-82.34 -208.5,-87.82 -139.08,-5.49 -272.61,0.23 -340.29,-10.97 -68.03,-11.28 -241.42,-46.88 -302.67,-163.5 -57.77,-110.2 -43.03,-195.07 -26.63,-319.41 16.46,-124.44 84.2,-305.49 230.51,-433.54 146.39,-128.03 325.21,-157.36 658.56,-164.65 398.78,-8.74 519.17,9.54 680.5,21.95 166.47,12.79 340.23,38.42 340.23,38.42l-142.64 510.37c0,0 -247.13,-36.68 -373.21,-43.91 -128.05,-7.29 -312.86,-14.66 -411.57,-5.49 -98.79,9.17 -203.01,18.42 -208.56,93.31 -3.62,49.4 9.17,84.14 115.25,93.31 89.77,7.72 270.75,12.77 384.12,10.97 113.45,-1.88 298.18,18.28 362.26,181.05 63.97,162.85 0,376.83 -38.42,460.97 -40.08,87.88 -93.31,204.88 -268.95,279.92 -175.56,75.03 -387.81,82.31 -576.14,82.31 -188.5,0 -367.74,-9.17 -554.34,-21.95 -186.62,-12.86 -444.51,-60.37 -444.51,-60.37z"/>
   <path class="fil1" d="M15535.41 3877c0,0 33.8,-325.92 312.64,-312.64 234.5,11.12 308.73,212.25 312.64,297.75 3.68,81.88 -63.28,297.75 -297.75,297.75 -234.5,0 -327.52,-171.22 -327.52,-282.87zm-1220.7 -364.06l-7218.59 -447.83c-775.41,-26.2 -957.17,-81.54 -987.08,20.8 -68.25,259.55 27.94,259.55 206.25,437.43 685.5,592.25 1380.74,1152.38 2062.47,1760.09l1237.46 1051.85c220.99,208.27 220.99,93.74 486.17,-20.86 441.97,-187.41 987,-239.47 795.55,437.41 -206.27,697.78 -176.79,510.37 294.56,947.8 839.75,791.5 1046.02,604.02 574.56,1083.05 -73.66,83.34 -662.96,531.17 -206.25,614.5 117.85,20.86 441.97,10.4 589.3,10.4 309.38,0 2268.72,52.06 2357.03,-31.2 0,-52.14 44.2,-52.14 -191.45,-93.74l-795.55 -177.08c-279.9,-62.48 -854.41,-104.14 -972.34,-333.29 -132.51,-218.67 -824.95,-1603.81 -810.21,-1780.89 191.53,-166.61 486.17,-291.61 736.61,-426.95l2312.85 -1260.21c44.2,0 913.4,656.1 1797.29,-72.86 147.33,-135.42 211.67,-212.9 368.32,-427.03 103.11,52.06 1060.73,468.69 1134.39,458.23 14.74,-145.82 -839.75,-926.85 -972.34,-1135.21 135.54,-287.42 924.68,-948.14 942.88,-1166.39 -162.07,20.8 -942.88,385.29 -1104.93,468.63 -103.13,-72.88 -471.37,-801.9 -1340.6,-781.04 -629.65,15.82 -987,383.18 -1296.38,864.38z"/>
  </g>
 </g>
</svg>
